<svg height="512pt" viewBox="-17 0 512 512" width="512pt" xmlns="http://www.w3.org/2000/svg"><path d="m454.214844 43.417969h-27.515625v-18.550781c0-13.710938-11.15625-24.867188-24.867188-24.867188-13.71875 0-24.878906 11.15625-24.878906 24.867188v18.550781h-16.726563v-18.550781c0-13.710938-11.15625-24.867188-24.867187-24.867188-13.71875 0-24.878906 11.15625-24.878906 24.867188v18.550781h-20.152344c-4.273437 0-7.71875 3.457031-7.71875 7.71875s3.445313 7.71875 7.71875 7.71875h20.152344v18.546875c0 13.722656 11.160156 24.878906 24.878906 24.878906 13.710937 0 24.867187-11.15625 24.867187-24.878906v-18.546875h16.726563v18.546875c0 13.722656 11.160156 24.878906 24.878906 24.878906 13.710938 0 24.867188-11.15625 24.867188-24.878906v-18.546875h27.515625c5.003906 0 9.078125 4.078125 9.078125 9.078125v60.699218c-4.84375 0-423.300781 0-447.851563 0v-60.699218c0-5 4.074219-9.078125 9.078125-9.078125h27.511719v18.546875c0 13.722656 11.15625 24.878906 24.867188 24.878906 13.722656 0 24.878906-11.15625 24.878906-24.878906v-18.546875h16.726562v18.546875c0 13.722656 11.160156 24.878906 24.867188 24.878906 13.722656 0 24.878906-11.15625 24.878906-24.878906v-18.546875h91.199219c4.261719 0 7.71875-3.457031 7.71875-7.71875s-3.457031-7.71875-7.71875-7.71875h-91.199219v-18.550781c0-13.710938-11.15625-24.867188-24.878906-24.867188-13.707032 0-24.867188 11.15625-24.867188 24.867188v18.550781h-16.726562v-18.550781c0-13.710938-11.15625-24.867188-24.878906-24.867188-13.710938 0-24.867188 11.15625-24.867188 24.867188v18.550781h-27.511719c-13.515625 0-24.519531 11-24.519531 24.515625v401.84375c0 23.285156 18.949219 42.222656 42.234375 42.222656h13.421875c4.261719 0 7.71875-3.449219 7.71875-7.71875 0-4.261719-3.457031-7.722656-7.71875-7.722656h-13.421875c-14.773437 0-26.792969-12.011719-26.792969-26.78125v-38.03125h447.851563v38.03125c0 14.769531-12.023438 26.78125-26.792969 26.78125h-349.964844c-4.261718 0-7.722656 3.460937-7.722656 7.722656 0 4.269531 3.460938 7.71875 7.722656 7.71875h349.964844c23.28125 0 42.234375-18.9375 42.234375-42.222656 0-16.152344 0-384.683594 0-401.84375 0-13.515625-11.003906-24.515625-24.519531-24.515625zm-112.195313 40.65625c-1.699219 1.707031-4.066406 2.769531-6.660156 2.769531-5.207031 0-9.4375-4.230469-9.4375-9.441406 0-26.914063 0-25.59375 0-52.535156 0-5.195313 4.230469-9.425782 9.4375-9.425782 5.199219 0 9.429687 4.230469 9.429687 9.425782 0 56.785156 1.023438 55.414062-2.769531 59.207031zm69.242188-6.671875c0 5.210937-4.230469 9.441406-9.429688 9.441406-5.207031 0-9.4375-4.230469-9.4375-9.441406 0-26.925782 0-25.59375 0-52.535156 0-5.195313 4.230469-9.425782 9.4375-9.425782 5.199219 0 9.429688 4.230469 9.429688 9.425782zm-277.316407-52.535156c0-5.195313 4.230469-9.425782 9.425782-9.425782 5.210937 0 9.441406 4.230469 9.441406 9.425782v52.535156c0 5.210937-4.230469 9.441406-9.441406 9.441406-5.195313 0-9.425782-4.230469-9.425782-9.441406 0-15.730469 0-36.796875 0-52.535156zm-66.472656 0c0-5.195313 4.230469-9.425782 9.425782-9.425782 5.210937 0 9.441406 4.230469 9.441406 9.425782v52.535156c0 5.210937-4.230469 9.441406-9.441406 9.441406-5.195313 0-9.425782-4.230469-9.425782-9.441406 0-15.730469 0-36.796875 0-52.535156zm25.1875 391.4375h-77.21875v-80.089844h77.21875zm0-95.53125h-77.21875v-80.078126h77.21875zm0-96.621094h-77.21875c0-16.332032 0-63.9375 0-80.078125h77.21875zm92.65625 192.152344h-77.21875v-80.089844h77.21875zm0-95.53125h-77.21875v-80.078126h77.21875zm0-96.621094h-77.21875v-80.078125h77.21875zm92.660156 192.152344h-77.21875v-80.089844h77.21875zm0-95.53125h-77.21875v-80.078126h77.21875zm0-96.621094h-77.21875v-80.078125h77.21875zm92.65625 192.152344h-77.21875v-80.089844h77.21875zm0-95.53125h-77.21875v-80.078126h77.21875zm0-96.621094h-77.21875v-80.078125h77.21875zm92.660157 192.152344h-77.21875v-80.089844h77.21875zm0-95.53125h-77.21875v-80.078126h77.21875zm0-96.621094h-77.21875v-80.078125h77.21875zm0 0"/><path d="m317.304688 309.578125c3.25 3.25 8.640624 2.964844 11.515624-.675781l36.773438-46.574219c2.640625-3.347656 2.070312-8.203125-1.277344-10.84375s-8.199218-2.070313-10.839844 1.273437l-31.394531 39.765626-11.632812-11.636719c-3.015625-3.015625-7.902344-3.015625-10.917969 0s-3.015625 7.902343 0 10.917969zm0 0"/><path d="m45.535156 213.027344c2.371094 0 4.597656-1.089844 6.058594-2.9375l36.769531-46.578125c2.640625-3.34375 2.070313-8.199219-1.273437-10.839844-3.347656-2.640625-8.203125-2.074219-10.84375 1.273437l-31.390625 39.761719-11.632813-11.632812c-3.015625-3.015625-7.90625-3.015625-10.917968 0-3.015626 3.015625-3.015626 7.902343 0 10.917969 18.984374 18.984374 19 20.035156 23.230468 20.035156zm0 0"/><path d="m137.398438 406.28125c2.375 0 4.601562-1.089844 6.0625-2.9375l36.769531-46.578125c2.640625-3.34375 2.070312-8.199219-1.277344-10.84375-3.34375-2.640625-8.199219-2.070313-10.839844 1.277344l-31.394531 39.761719-11.632812-11.632813c-3.015626-3.015625-7.902344-3.015625-10.917969 0s-3.015625 7.902344 0 10.914063c18.984375 18.988281 19 20.039062 23.230469 20.039062zm0 0"/></svg>